<svg width="40" height="32" viewBox="0 0 40 32" fill="none" xmlns="http://www.w3.org/2000/svg">
<path d="M0 8.69061V7.44936C0 6.42106 0.833577 5.58748 1.86188 5.58748H29.79V1.86373C29.79 0.20612 31.7992 -0.622027 32.9685 0.547153L39.1747 6.7534C39.9018 7.48054 39.9018 8.65942 39.1747 9.38648L32.9685 15.5927C31.8036 16.7573 29.79 15.9407 29.79 14.2762V10.5525H1.86188C0.833577 10.5525 0 9.71891 0 8.69061ZM37.8581 20.4825H9.93V16.7587C9.93 15.1052 7.92367 14.27 6.75155 15.4422L0.545297 21.6484C-0.181766 22.3755 -0.181766 23.5544 0.545297 24.2815L6.75155 30.4877C7.91739 31.6535 9.93 30.8343 9.93 29.1712V25.4475H37.8581C38.8864 25.4475 39.72 24.6139 39.72 23.5856V22.3444C39.72 21.3161 38.8864 20.4825 37.8581 20.4825Z" fill="white"/>
</svg>
