<svg width="40" height="46" viewBox="0 0 40 46" fill="none" xmlns="http://www.w3.org/2000/svg">
<path d="M8.51143 6.42429H9.26143V5.67429V1.06393C9.26143 0.892981 9.40441 0.75 9.57536 0.75H13.1218C13.2927 0.75 13.4357 0.892981 13.4357 1.06393V5.67429V6.42429H14.1857H25.5343H26.2843V5.67429V1.06393C26.2843 0.892981 26.4273 0.75 26.5982 0.75H30.1446C30.3156 0.75 30.4586 0.892981 30.4586 1.06393V5.67429V6.42429H31.2086H35.4643C37.3996 6.42429 38.97 7.9947 38.97 9.93V41.1386C38.97 43.0739 37.3996 44.6443 35.4643 44.6443H4.25571C2.32042 44.6443 0.75 43.0739 0.75 41.1386V9.93C0.75 7.9947 2.32042 6.42429 4.25571 6.42429H8.51143ZM36.2143 14.1857V13.4357H35.4643H4.25571H3.50571V14.1857V40.6066C3.50571 41.3134 4.08088 41.8886 4.78768 41.8886H34.9323C35.6391 41.8886 36.2143 41.3134 36.2143 40.6066V14.1857ZM13.1218 24.7843H9.57536C9.40441 24.7843 9.26143 24.6413 9.26143 24.4704V20.9239C9.26143 20.753 9.40441 20.61 9.57536 20.61H13.1218C13.2927 20.61 13.4357 20.753 13.4357 20.9239V24.4704C13.4357 24.6413 13.2927 24.7843 13.1218 24.7843ZM21.9471 20.9239V24.4704C21.9471 24.6413 21.8042 24.7843 21.6332 24.7843H18.0868C17.9158 24.7843 17.7729 24.6413 17.7729 24.4704V20.9239C17.7729 20.753 17.9158 20.61 18.0868 20.61H21.6332C21.8042 20.61 21.9471 20.753 21.9471 20.9239ZM30.4586 20.9239V24.4704C30.4586 24.6413 30.3156 24.7843 30.1446 24.7843H26.5982C26.4273 24.7843 26.2843 24.6413 26.2843 24.4704V20.9239C26.2843 20.753 26.4273 20.61 26.5982 20.61H30.1446C30.3156 20.61 30.4586 20.753 30.4586 20.9239ZM21.9471 29.4354V32.9818C21.9471 33.1527 21.8042 33.2957 21.6332 33.2957H18.0868C17.9158 33.2957 17.7729 33.1527 17.7729 32.9818V29.4354C17.7729 29.2644 17.9158 29.1214 18.0868 29.1214H21.6332C21.8042 29.1214 21.9471 29.2644 21.9471 29.4354ZM13.4357 29.4354V32.9818C13.4357 33.1527 13.2927 33.2957 13.1218 33.2957H9.57536C9.40441 33.2957 9.26143 33.1527 9.26143 32.9818V29.4354C9.26143 29.2644 9.40441 29.1214 9.57536 29.1214H13.1218C13.2927 29.1214 13.4357 29.2644 13.4357 29.4354ZM30.4586 29.4354V32.9818C30.4586 33.1527 30.3156 33.2957 30.1446 33.2957H26.5982C26.4273 33.2957 26.2843 33.1527 26.2843 32.9818V29.4354C26.2843 29.2644 26.4273 29.1214 26.5982 29.1214H30.1446C30.3156 29.1214 30.4586 29.2644 30.4586 29.4354Z" stroke="#3D5654" stroke-width="1.5"/>
</svg>
