<svg width="40" height="24" viewBox="0 0 40 24" fill="none" xmlns="http://www.w3.org/2000/svg">
<path d="M9.93 9.93V13.902H29.79V9.93C29.79 7.73919 31.5712 5.958 33.762 5.958H35.748C35.748 2.66869 33.0793 0 29.79 0H9.93C6.64069 0 3.972 2.66869 3.972 5.958H5.958C8.14881 5.958 9.93 7.73919 9.93 9.93ZM35.748 7.944H33.762C32.6635 7.944 31.776 8.83149 31.776 9.93V15.888H7.944V9.93C7.944 8.83149 7.05651 7.944 5.958 7.944H3.972C1.78119 7.944 0 9.72519 0 11.916C0 13.3807 0.806813 14.6468 1.986 15.3356V22.839C1.986 23.3852 2.43285 23.832 2.979 23.832H6.951C7.49715 23.832 7.944 23.3852 7.944 22.839V21.846H31.776V22.839C31.776 23.3852 32.2229 23.832 32.769 23.832H36.741C37.2872 23.832 37.734 23.3852 37.734 22.839V15.3356C38.9132 14.6468 39.72 13.3807 39.72 11.916C39.72 9.72519 37.9388 7.944 35.748 7.944Z" fill="#3D5654"/>
</svg>
