<svg width="49" height="46" viewBox="0 0 49 46" fill="none" xmlns="http://www.w3.org/2000/svg">
<path d="M35.3662 16.5885L46.6015 7.16099C47.4524 6.44929 47.9259 5.54493 48.0219 4.44792C48.1178 3.35091 47.8087 2.37683 47.0945 1.52567L46.7115 1.84706C46.7116 1.84716 46.7117 1.84726 46.7117 1.84736M35.3662 16.5885L46.7117 1.84736M35.3662 16.5885L39.7221 42.5227L35.3662 16.5885ZM46.7117 1.84736C46.0816 1.09902 45.2979 0.69038 44.3353 0.605051C43.3734 0.519792 42.5312 0.785845 41.7806 1.41566L30.5453 10.8432L30.3262 11.027L30.0567 10.9314L5.54242 2.23386L2.18781 5.04871L21.3081 17.7572L21.8646 18.1271L21.3527 18.5567L10.1174 27.9842L9.9259 28.1449L9.68244 28.0881L3.43352 26.6305L1.06864 28.6149L8.56159 33.6793L8.67995 33.7593L8.73818 33.8898L12.4246 42.1483L14.7894 40.1639L14.4391 33.7568L14.4254 33.5072L14.6169 33.3465L25.8522 23.919L26.3641 23.4894L26.6318 24.1017L35.827 45.1384L39.1816 42.3235L34.8731 16.6714L34.8257 16.3893L35.0448 16.2055L46.2801 6.77797L46.2807 6.77746C47.0306 6.1503 47.4395 5.36788 47.5238 4.40434C47.6081 3.44089 47.3414 2.59789 46.7117 1.84736Z" stroke="#D3A019" stroke-width="1.3"/>
</svg>
