<svg width="40" height="31" viewBox="0 0 40 31" fill="none" xmlns="http://www.w3.org/2000/svg">
<path opacity="0.7" d="M24.1679 29.7626V29.7594V23.1648C24.1679 22.607 23.9463 22.072 23.5518 21.6775C23.1574 21.2831 22.6224 21.0615 22.0646 21.0615H17.6516C17.0938 21.0615 16.5588 21.2831 16.1644 21.6775C15.77 22.072 15.5484 22.607 15.5484 23.1648V29.7643C15.5484 29.7916 15.5376 29.8178 15.5183 29.8371C15.4992 29.8563 15.4733 29.8672 15.4463 29.8675C15.4461 29.8675 15.4459 29.8675 15.4456 29.8675L7.72377 29.8875C7.72359 29.8875 7.72341 29.8875 7.72322 29.8875C7.69603 29.8874 7.66999 29.8765 7.65076 29.8573C7.6314 29.8379 7.62052 29.8116 7.62052 29.7843V18.9554L19.8609 8.87407L32.0985 18.948V29.7843C32.0985 29.8116 32.0876 29.8379 32.0682 29.8573C32.049 29.8765 32.023 29.8873 31.9959 29.8875C31.9957 29.8875 31.9955 29.8875 31.9952 29.8875L24.2739 29.8661H24.2711C24.2575 29.8661 24.2441 29.8635 24.2315 29.8582C24.219 29.853 24.2076 29.8454 24.198 29.8358C24.1884 29.8262 24.1808 29.8147 24.1756 29.8022C24.1705 29.7896 24.1678 29.7762 24.1679 29.7626ZM38.6498 15.7952L37.1121 17.6645L21.0241 4.41406L21.0242 4.41402L21.0159 4.40739C20.6887 4.14365 20.2811 3.99983 19.8609 3.99983C19.4406 3.99983 19.033 4.14366 18.7058 4.40739L18.7058 4.40735L18.6976 4.41407L2.61092 17.664L1.07027 15.791L18.3898 1.52721C18.3899 1.52712 18.39 1.52704 18.3901 1.52695C18.8035 1.1869 19.3221 1.00097 19.8574 1.00097C20.3929 1.00097 20.9116 1.18699 21.3251 1.52721L21.3252 1.52726L27.4985 6.60634L29.1339 7.95181V5.83412V1H32.6501V10.3781V10.8498L33.0141 11.1498L38.6498 15.7952Z" stroke="#D3A019" stroke-width="2"/>
</svg>
