<svg width="40" height="53" viewBox="0 0 40 53" fill="none" xmlns="http://www.w3.org/2000/svg">
<path d="M11.2845 41.6448C13.2412 44.4322 15.5377 47.7038 18.2305 51.6075C19.0179 52.7442 20.7023 52.7442 21.4897 51.6072L11.2845 41.6448ZM11.2845 41.6448C7.76873 36.6363 5.35024 33.191 3.70199 30.4503M11.2845 41.6448L3.70199 30.4503M3.70199 30.4503C2.42552 28.3279 1.62993 26.6573 1.15014 25.0371M3.70199 30.4503L1.15014 25.0371M1.15014 25.0371C0.671497 23.4209 0.5 21.8306 0.5 19.86M1.15014 25.0371L0.5 19.86M0.5 19.86C0.5 9.16773 9.16773 0.5 19.86 0.5M0.5 19.86L19.86 0.5M19.86 0.5C30.5523 0.5 39.22 9.16773 39.22 19.86M19.86 0.5L39.22 19.86M39.22 19.86C39.22 21.8306 39.0485 23.4209 38.5699 25.0371M39.22 19.86L38.5699 25.0371M38.5699 25.0371C38.0901 26.6573 37.2945 28.3279 36.018 30.4503M38.5699 25.0371L36.018 30.4503M36.018 30.4503C34.3698 33.191 31.9513 36.6363 28.4355 41.6448M36.018 30.4503L28.4355 41.6448M28.4355 41.6448C26.4789 44.4321 24.1825 47.7034 21.4899 51.6069L28.4355 41.6448ZM19.86 28.635C24.7063 28.635 28.635 24.7063 28.635 19.86C28.635 15.0137 24.7063 11.085 19.86 11.085C15.0137 11.085 11.085 15.0137 11.085 19.86C11.085 24.7063 15.0137 28.635 19.86 28.635Z" fill="#3D5654" stroke="#3D5654"/>
</svg>
