<svg width="40" height="46" viewBox="0 0 40 46" fill="none" xmlns="http://www.w3.org/2000/svg">
<path d="M19.86 22.6971C26.1283 22.6971 31.2086 17.6169 31.2086 11.3486C31.2086 5.08026 26.1283 0 19.86 0C13.5917 0 8.51143 5.08026 8.51143 11.3486C8.51143 17.6169 13.5917 22.6971 19.86 22.6971ZM27.804 25.5343H26.3234C24.3551 26.4386 22.1652 26.9529 19.86 26.9529C17.5548 26.9529 15.3738 26.4386 13.3966 25.5343H11.916C5.33737 25.5343 0 30.8717 0 37.4503V41.1386C0 43.4881 1.90621 45.3943 4.25571 45.3943H35.4643C37.8138 45.3943 39.72 43.4881 39.72 41.1386V37.4503C39.72 30.8717 34.3826 25.5343 27.804 25.5343Z" fill="#3D5654"/>
</svg>
