<svg width="40" height="42" viewBox="0 0 40 42" fill="none" xmlns="http://www.w3.org/2000/svg">
<path d="M38.8376 26.3811L38.8406 26.3828C38.9309 26.4344 38.9967 26.5548 38.96 26.7042C38.0646 29.5758 36.5428 32.1663 34.5548 34.3153L34.5547 34.3153L34.5492 34.3215C34.473 34.4056 34.3509 34.4292 34.2401 34.3663C34.2398 34.3661 34.2396 34.366 34.2394 34.3659L30.6787 32.3097L30.2208 32.0453L29.8179 32.3877C28.3811 33.6091 26.7372 34.5586 24.9661 35.1888L24.4676 35.3662V35.8954V40.0111C24.4676 40.1302 24.3838 40.2326 24.2714 40.2571L24.2677 40.2579C21.4532 40.8869 18.4196 40.9192 15.4599 40.2579L15.4563 40.2571C15.3438 40.2326 15.2601 40.1302 15.2601 40.0111V35.8954V35.3632L14.7577 35.1875C12.9809 34.566 11.3395 33.6179 9.91312 32.3907L9.50973 32.0436L9.04892 32.3097L5.48532 34.3676L5.48247 34.3692C5.39363 34.4211 5.25912 34.4079 5.17283 34.3153C3.18214 32.1551 1.65942 29.5609 0.764556 26.6944C0.727722 26.5644 0.783886 26.4454 0.878718 26.3912L0.881666 26.3895L4.44527 24.3316L4.90424 24.0666L4.80765 23.5454C4.46469 21.6951 4.46469 19.7968 4.80765 17.9464L4.90424 17.4253L4.44527 17.1602L0.881666 15.1024L0.88167 15.1024L0.878714 15.1007C0.772958 15.0402 0.726385 14.9188 0.761912 14.8059L0.762701 14.8034C1.65749 11.9256 3.18116 9.32947 5.17287 7.1765L5.1729 7.17653L5.17847 7.17038C5.25448 7.08637 5.37634 7.06271 5.48702 7.12526C5.48744 7.1255 5.48785 7.12573 5.48827 7.12597L9.0399 9.18175L9.49802 9.44692L9.90135 9.1041C11.3382 7.88279 12.9821 6.93326 14.7531 6.30303L15.2517 6.12562V5.59644V1.48073C15.2517 1.36165 15.3355 1.25929 15.4479 1.23476L15.4479 1.23477L15.4516 1.23394C18.2661 0.604914 21.2997 0.57266 24.2593 1.23396L24.263 1.23476C24.3754 1.25929 24.4592 1.36165 24.4592 1.48073V5.58807V6.1203L24.9616 6.29602C26.7384 6.91749 28.3797 7.86562 29.8062 9.09282L30.2095 9.43987L30.6704 9.17377L34.234 7.11592L34.2368 7.11426C34.3257 7.06242 34.4602 7.07553 34.5465 7.16823C36.5372 9.32848 38.0599 11.9226 38.9547 14.7891C38.9915 14.9192 38.9354 15.0381 38.8406 15.0923L38.8376 15.094L35.274 17.1519L34.815 17.4169L34.9116 17.938C35.2546 19.7884 35.2546 21.6867 34.9116 23.5371L34.815 24.0582L35.274 24.3232L38.8376 26.3811ZM12.4132 20.7376C12.4132 24.8408 15.7522 28.1798 19.8555 28.1798C23.9587 28.1798 27.2977 24.8408 27.2977 20.7376C27.2977 16.6343 23.9587 13.2953 19.8555 13.2953C15.7522 13.2953 12.4132 16.6343 12.4132 20.7376Z" stroke="#D3A019" stroke-width="1.5"/>
</svg>
