<svg width="40" height="38" viewBox="0 0 40 38" fill="none" xmlns="http://www.w3.org/2000/svg">
<path d="M38.9665 22.226L38.9665 22.2262C38.4209 26.0858 36.5613 29.5207 33.8553 32.0701C33.7185 32.1989 33.4553 32.2117 33.2797 32.036L23.0215 21.7779H38.5365C38.8146 21.7779 38.9953 22.0226 38.9665 22.226ZM36.6324 16.3482L36.6324 16.3482C36.6463 16.549 36.4637 16.7732 36.1985 16.7732H20.6101V1.18547C20.6101 0.919681 20.8349 0.737033 21.0351 0.750857L21.0351 0.750862C29.3839 1.32674 36.0565 7.99939 36.6324 16.3482ZM15.6054 21.0279V21.3385L15.8251 21.5582L27.2051 32.939L27.7354 32.4086L27.2051 32.939C27.4055 33.1394 27.3525 33.4377 27.1871 33.555L27.1869 33.5551C24.5108 35.4533 21.2576 36.5877 17.7355 36.6317C8.78197 36.7442 1.06439 29.3927 0.759949 20.4453C0.463655 11.7263 6.8284 4.44932 15.1578 3.27229L15.1581 3.27224C15.3604 3.24356 15.6054 3.42381 15.6054 3.70228V21.0279Z" stroke="#D3A019" stroke-width="1.5"/>
</svg>
