<svg width="51" height="48" viewBox="0 0 51 48" fill="none" xmlns="http://www.w3.org/2000/svg">
<path d="M45.3325 37.9833C46.0479 37.9842 46.7214 37.8725 47.35 37.6497V42.6667C47.35 43.9598 46.8975 45.051 45.9747 45.9754C45.0524 46.8992 43.9619 47.3516 42.6674 47.35H42.6667H5.33333C4.04026 47.35 2.95013 46.8976 2.02762 45.975C1.10517 45.0526 0.651657 43.9614 0.65 42.6663V5.33333C0.65 4.04062 1.10306 2.95061 2.02723 2.02801C2.95193 1.10488 4.04254 0.651656 5.33374 0.65H42.6667C43.9594 0.65 45.0505 1.1031 45.975 2.02762C46.8995 2.95212 47.3516 4.04209 47.35 5.33254V5.33333V10.3525C46.7214 10.1291 46.0482 10.0167 45.3333 10.0167H43.3167V5.33333V4.68333H42.6667H5.33333H4.68333V5.33333V42.6667V43.3167H5.33333H42.6667H43.3167V42.6667V37.9833M45.3325 37.9833L45.3333 37.3333V37.9833H45.3325ZM45.3325 37.9833H43.3167M43.3167 37.9833V37.3333V36.6833H42.6667H42.0167V37.3333H42.6667V37.9833H43.3167ZM42.0167 10.6667H42.6667V10.0167L42.0167 10.6667ZM42.0167 10.6667V11.3167H42.6667H43.3167V10.6667" stroke="#D3A019" stroke-width="2"/>
</svg>
